<svg version="1.1" id="Layer_1" xmlns="http://www.w3.org/2000/svg" xmlns:xlink="http://www.w3.org/1999/xlink" x="0px" y="0px"
	 width="100%" viewBox="0 0 512 512" enable-background="new 0 0 512 512" xml:space="preserve">

<path fill="#26404F" opacity="1.000000" stroke="none" 
	d="
M244.955643,449.093597 
	C235.854980,449.408539 226.672226,449.115723 217.692886,450.328705 
	C213.945328,450.834961 209.898895,453.901917 207.253311,456.915131 
	C198.652374,466.711243 190.824158,477.182587 182.317749,487.066345 
	C177.849548,492.258087 173.041412,492.385925 167.243301,488.843201 
	C162.024704,485.654572 156.705307,482.630920 151.189850,478.876831 
	C151.353027,474.029816 150.979950,469.575134 152.303604,465.700043 
	C156.545258,453.282410 161.626007,441.151550 165.873550,428.735748 
	C166.779205,426.088470 166.567139,422.043243 165.107910,419.776337 
	C158.376587,409.319366 153.627548,398.084076 149.725082,386.351929 
	C149.129440,384.561218 146.028992,382.279602 144.314438,382.454437 
	C140.473969,382.846069 136.776657,384.641693 133.021042,385.865540 
	C128.219101,386.999817 123.464218,388.490509 118.597359,389.133209 
	C115.728409,389.512115 112.681931,388.546722 109.366257,387.579590 
	C108.678764,376.700104 108.282738,366.428375 108.021500,356.153259 
	C107.838074,348.938599 110.561333,342.742615 115.728195,337.871613 
	C122.118027,331.847626 128.667282,325.961365 135.483459,320.429382 
	C143.154938,314.203247 148.678513,307.283661 151.061249,297.082031 
	C154.714691,281.440033 160.181000,266.220551 164.905136,250.830093 
	C166.542297,245.496506 166.586960,240.727890 162.766144,235.879684 
	C158.075974,229.928421 154.235001,223.307892 150.437256,216.985672 
	C158.011734,214.907806 165.089142,212.431732 172.357376,210.811981 
	C189.544724,206.981750 206.713501,202.841949 224.097794,200.191513 
	C238.708313,197.963974 250.213760,192.691025 255.893082,178.223145 
	C259.238373,169.701141 262.612854,161.190552 265.938416,152.660889 
	C273.257233,133.888916 286.139435,124.759865 306.099945,125.083496 
	C320.047638,125.309631 333.981781,126.828697 347.923248,126.847778 
	C360.593628,126.865128 372.291565,123.156921 381.113068,113.290810 
	C384.319794,109.704323 387.184235,105.796219 390.036407,101.911186 
	C398.453522,90.445930 409.133331,82.132950 422.859375,77.970856 
	C421.254364,82.290817 419.842621,86.695282 417.999390,90.911087 
	C415.185242,97.347534 414.813629,102.995995 419.360321,109.287834 
	C423.443512,114.938271 425.830963,121.814133 429.060242,128.893463 
	C429.828857,132.034851 430.515350,134.428986 431.176086,136.830200 
	C432.777191,142.649002 434.706573,143.870895 440.567383,142.596176 
	C442.674194,142.137939 444.715820,141.380447 446.822144,140.918976 
	C454.574188,139.220581 462.340942,137.589096 470.102142,135.932434 
	C471.384277,137.785980 473.761810,139.634674 473.770050,141.493866 
	C473.822052,153.242218 474.159363,165.097961 472.655914,176.691772 
	C472.042480,181.422501 467.666992,186.194946 463.948853,189.886658 
	C455.393738,198.380966 445.918854,205.947617 437.342010,214.421860 
	C430.822418,220.863510 431.795074,230.387177 429.114380,238.430420 
	C425.047058,250.634048 421.112732,262.882019 416.729553,275.463867 
	C396.891296,264.530670 377.445374,253.244797 357.999329,241.518433 
	C359.647339,230.615250 358.922180,220.226135 355.945709,210.154663 
	C351.620361,195.519211 342.572479,185.729965 326.452393,184.048676 
	C323.363342,184.182724 320.680725,184.102982 318.080750,184.528473 
	C305.670044,186.559555 294.998230,192.434235 284.680847,199.871399 
	C273.640808,207.507202 265.229889,217.208328 257.703705,228.191574 
	C247.170059,243.665955 238.880249,259.833649 234.917969,278.376343 
	C234.239899,284.162079 233.733490,289.597504 233.015289,295.398621 
	C230.574158,307.752930 232.789566,319.203033 238.172745,329.835083 
	C240.367920,334.170624 244.626862,337.461243 248.042633,341.546417 
	C249.388123,342.892090 250.511078,344.154266 251.908554,344.906158 
	C259.916473,349.214508 268.617188,350.332794 276.994446,347.291443 
	C286.298218,343.913757 295.085022,339.112152 304.443237,334.983398 
	C322.824738,345.392914 340.868622,355.734436 358.875977,366.139252 
	C360.107574,366.850861 361.065430,368.036316 362.150574,369.001404 
	C352.694580,378.917572 343.792236,389.451660 333.618805,398.567108 
	C324.396240,406.830536 320.887512,416.910645 318.873413,428.476624 
	C317.157776,438.328705 314.521820,448.077087 311.470001,457.607819 
	C310.461060,460.758759 307.342255,463.814087 304.400726,465.655090 
	C296.284027,470.735168 287.797821,475.236694 279.359406,479.784637 
	C276.173828,481.501556 272.756561,482.107605 269.357544,478.618347 
	C266.618591,468.762817 264.494659,459.425690 261.585327,450.340057 
	C260.976318,448.438232 257.463440,446.309296 255.303864,446.325348 
	C251.847794,446.351044 248.404404,448.082947 244.955643,449.093597 
z"/>
<path fill="#324566" opacity="1.000000" stroke="none" 
	d="
M423.034973,77.649323 
	C409.133331,82.132950 398.453522,90.445930 390.036407,101.911186 
	C387.184235,105.796219 384.319794,109.704323 381.113068,113.290810 
	C372.291565,123.156921 360.593628,126.865128 347.923248,126.847778 
	C333.981781,126.828697 320.047638,125.309631 306.099945,125.083496 
	C286.139435,124.759865 273.257233,133.888916 265.938416,152.660889 
	C262.612854,161.190552 259.238373,169.701141 255.893082,178.223145 
	C250.213760,192.691025 238.708313,197.963974 224.097794,200.191513 
	C206.713501,202.841949 189.544724,206.981750 172.357376,210.811981 
	C165.089142,212.431732 158.011734,214.907806 150.429047,216.555939 
	C150.677902,212.726639 150.583359,208.926285 152.147461,206.017960 
	C158.216873,194.732208 164.634232,183.621033 171.290756,172.668961 
	C174.574890,167.265518 179.397293,164.006912 186.323700,164.953156 
	C191.912857,165.716721 197.611252,165.737762 203.171204,166.641663 
	C208.544296,167.515137 212.731003,165.697067 216.203171,162.016037 
	C228.987488,148.462692 241.850296,134.973434 254.241867,121.066483 
	C257.400543,117.521530 259.835846,112.759651 261.028290,108.149467 
	C263.857239,97.212029 265.691925,86.019821 268.029175,74.951859 
	C269.282043,69.018990 272.127716,63.860306 277.451202,60.794407 
	C287.519135,54.996078 297.806976,49.579529 308.003418,44.004341 
	C309.986847,46.190331 312.691193,48.066925 313.791931,50.631752 
	C315.639252,54.936176 316.465729,59.678753 317.876221,64.989487 
	C318.636017,68.816704 319.007904,71.961334 319.903076,74.949203 
	C321.146515,79.099388 323.925476,80.706535 328.343506,79.435684 
	C338.959686,76.381943 349.840790,75.325638 360.836121,76.034470 
	C366.954926,76.428925 371.416718,73.867874 375.029816,69.345978 
	C382.268036,60.287086 389.410522,51.151691 396.652863,42.096115 
	C400.040436,37.860416 403.878815,34.251179 409.796783,34.139805 
	C415.890015,37.471832 422.047394,40.693180 428.054138,44.174442 
	C432.123749,46.533020 432.813660,50.655212 431.547638,54.603844 
	C429.086365,62.280365 426.023956,69.764153 423.034973,77.649323 
z"/>
<path fill="#1C323D" opacity="1.000000" stroke="none" 
	d="
M307.837097,43.705719 
	C297.806976,49.579529 287.519135,54.996078 277.451202,60.794407 
	C272.127716,63.860306 269.282043,69.018990 268.029175,74.951859 
	C265.691925,86.019821 263.857239,97.212029 261.028290,108.149467 
	C259.835846,112.759651 257.400543,117.521530 254.241867,121.066483 
	C241.850296,134.973434 228.987488,148.462692 216.203171,162.016037 
	C212.731003,165.697067 208.544296,167.515137 203.171204,166.641663 
	C197.611252,165.737762 191.912857,165.716721 186.323700,164.953156 
	C179.397293,164.006912 174.574890,167.265518 171.290756,172.668961 
	C164.634232,183.621033 158.216873,194.732208 152.147461,206.017960 
	C150.583359,208.926285 150.677902,212.726639 150.018707,216.546951 
	C154.235001,223.307892 158.075974,229.928421 162.766144,235.879684 
	C166.586960,240.727890 166.542297,245.496506 164.905136,250.830093 
	C160.181000,266.220551 154.714691,281.440033 151.061249,297.082031 
	C148.678513,307.283661 143.154938,314.203247 135.483459,320.429382 
	C128.667282,325.961365 122.118027,331.847626 115.728195,337.871613 
	C110.561333,342.742615 107.838074,348.938599 108.021500,356.153259 
	C108.282738,366.428375 108.678764,376.700104 109.043930,387.380310 
	C103.332947,384.497345 97.265236,381.647217 92.014679,377.707947 
	C89.813522,376.056519 88.416290,372.146057 88.259911,369.178009 
	C87.779640,360.062775 87.563583,350.870331 88.206528,341.775909 
	C88.937912,331.430511 96.730087,325.371185 103.848480,319.085419 
	C110.907043,312.852478 118.315620,306.932587 124.755852,300.106628 
	C130.935394,293.556976 130.764008,284.207489 133.195343,276.017426 
	C136.398544,265.227264 139.741547,254.478653 143.410751,243.221710 
	C146.592575,237.189850 149.419083,231.649170 144.080658,225.592163 
	C141.198929,221.340622 138.808456,217.055344 135.555084,213.577209 
	C128.478546,206.011719 129.637436,198.559387 134.484894,190.504044 
	C139.258530,182.571365 143.615967,174.388245 148.434921,166.109375 
	C149.481445,164.626694 150.205582,163.321014 151.024109,162.077469 
	C154.910400,156.173264 159.573730,152.313339 167.475159,153.782013 
	C173.466736,154.895706 179.665161,154.895996 185.771347,155.394043 
	C191.198044,155.836655 195.726028,152.843765 196.896667,148.036880 
	C199.972183,144.814728 203.043411,141.588486 206.124069,138.371246 
	C213.707886,130.451263 220.810684,121.983131 229.017151,114.771194 
	C237.445328,107.364388 241.530350,98.459152 243.080627,87.679962 
	C244.257950,79.493919 246.482407,71.464027 247.900360,63.305458 
	C249.273270,55.406166 254.026688,50.386982 260.698975,46.650715 
	C267.360474,42.920513 273.969238,39.094704 280.562164,35.244141 
	C284.358459,33.026932 288.262085,31.869165 292.345490,34.205570 
	C297.516113,37.164070 302.567780,40.330399 307.837097,43.705719 
z"/>
<path fill="#EAAD24" opacity="1.000000" stroke="none" 
	d="
M257.978058,227.998596 
	C265.229889,217.208328 273.640808,207.507202 285.037231,199.965576 
	C303.802063,210.330292 321.863129,220.679489 340.067139,231.344772 
	C346.139893,235.093552 352.069672,238.526230 357.999481,241.958908 
	C377.445374,253.244797 396.891296,264.530670 416.685913,275.820892 
	C432.273346,284.625244 447.512054,293.425293 462.575806,302.694916 
	C449.259644,310.104370 436.118469,317.044220 422.627930,323.927124 
	C420.951202,323.199188 419.587769,322.590576 418.301788,321.847870 
	C396.140259,309.048981 373.990906,296.229065 351.833649,283.422760 
	C322.626587,266.541809 293.403564,249.688370 264.227753,232.753586 
	C261.981384,231.449677 260.053802,229.596481 257.978058,227.998596 
z"/>
<path fill="#FBD46B" opacity="1.000000" stroke="none" 
	d="
M422.977295,323.984070 
	C436.118469,317.044220 449.259644,310.104370 462.719238,303.009766 
	C468.586609,310.963928 474.224823,319.014801 479.578430,327.250732 
	C480.296051,328.354767 479.946503,330.515137 479.464630,331.980316 
	C474.388489,347.415833 469.207794,362.817291 463.967133,378.197876 
	C463.603058,379.266296 462.729858,380.493622 461.760101,380.973175 
	C448.139038,387.709778 434.461060,394.331421 420.786957,400.960510 
	C420.518463,401.090637 420.130249,400.973755 419.273438,400.592255 
	C413.754822,390.794647 408.760681,381.376892 403.904114,371.615295 
	C410.353577,355.508972 416.665436,339.746521 422.977295,323.984070 
M433.629395,367.240601 
	C437.583618,369.482147 441.468445,368.884338 444.856079,366.305634 
	C452.817719,360.245148 457.723907,352.538971 457.136505,342.040771 
	C456.880188,337.459839 455.204102,334.352051 449.569489,333.449249 
	C446.555359,333.876190 443.143677,333.541504 440.599670,334.869202 
	C432.088837,339.311188 426.253693,351.437897 428.169006,360.729034 
	C428.641449,363.020996 431.315247,364.859131 433.629395,367.240601 
z"/>
<path fill="#E9AC24" opacity="1.000000" stroke="none" 
	d="
M403.766541,371.959167 
	C408.760681,381.376892 413.754822,390.794647 418.895203,400.520691 
	C411.368134,396.722443 403.618134,392.751862 396.039612,388.477264 
	C384.889557,382.188080 373.861877,375.682007 362.466309,369.134857 
	C361.065430,368.036316 360.107574,366.850861 358.875977,366.139252 
	C340.868622,355.734436 322.824738,345.392914 304.243988,334.707275 
	C298.170044,331.566956 292.641632,328.755707 286.944092,325.632019 
	C277.004150,319.595184 267.292358,313.766846 257.444061,308.179016 
	C249.456802,303.647095 241.305603,299.404083 233.227097,295.032959 
	C233.733490,289.597504 234.239899,284.162079 235.223099,278.527527 
	C256.014435,289.693451 276.346619,301.027130 296.639435,312.430786 
	C327.801331,329.942505 358.922821,347.526093 390.097412,365.015137 
	C394.550751,367.513489 399.205170,369.653381 403.766541,371.959167 
z"/>
<path fill="#F9C53A" opacity="1.000000" stroke="none" 
	d="
M96.071350,118.156372 
	C104.291122,119.100662 112.513840,120.020073 120.729935,120.995316 
	C131.860367,122.316498 142.985703,123.680489 154.256256,125.300262 
	C149.958893,127.431076 145.494141,129.231888 141.083084,131.155853 
	C131.369431,135.392639 121.682892,139.691574 111.650940,144.068222 
	C110.688469,144.899780 109.806740,145.527115 109.469841,146.371750 
	C103.165001,162.178253 96.888733,177.996582 90.746086,193.866470 
	C90.299973,195.019012 90.922920,196.585342 91.098282,198.320953 
	C93.070694,203.824631 94.993637,208.966614 96.916588,214.108612 
	C91.057831,206.026733 85.139862,197.986938 79.355408,189.852219 
	C72.246696,179.855194 65.249428,169.778931 58.412567,159.241104 
	C60.360569,158.202820 62.184387,157.012024 63.825375,157.225647 
	C72.822868,158.396927 75.731651,152.502945 77.954887,145.616562 
	C78.669640,143.402634 79.391602,141.189926 80.169823,138.997803 
	C81.954659,133.970169 84.597908,129.770996 90.066177,127.948204 
	C94.693657,126.405678 96.270638,122.771935 96.071350,118.156372 
z"/>
<path fill="#1C323D" opacity="1.000000" stroke="none" 
	d="
M409.648468,33.837090 
	C403.878815,34.251179 400.040436,37.860416 396.652863,42.096115 
	C389.410522,51.151691 382.268036,60.287086 375.029816,69.345978 
	C371.416718,73.867874 366.954926,76.428925 360.836121,76.034470 
	C349.840790,75.325638 338.959686,76.381943 328.343506,79.435684 
	C323.925476,80.706535 321.146515,79.099388 319.903076,74.949203 
	C319.007904,71.961334 318.636017,68.816704 318.060089,65.317215 
	C326.851471,64.585648 335.737518,65.042244 344.322510,63.646622 
	C348.547607,62.959770 353.004089,59.537624 355.981171,56.146423 
	C363.600342,47.467457 370.467163,38.126335 377.599640,29.022430 
	C383.094116,22.009277 388.557251,21.074766 396.213257,25.767447 
	C400.586182,28.447805 405.067596,30.951263 409.648468,33.837090 
z"/>
<path fill="#1C323D" opacity="1.000000" stroke="none" 
	d="
M133.279388,386.111664 
	C136.776657,384.641693 140.473969,382.846069 144.314438,382.454437 
	C146.028992,382.279602 149.129440,384.561218 149.725082,386.351929 
	C153.627548,398.084076 158.376587,409.319366 165.107910,419.776337 
	C166.567139,422.043243 166.779205,426.088470 165.873550,428.735748 
	C161.626007,441.151550 156.545258,453.282410 152.303604,465.700043 
	C150.979950,469.575134 151.353027,474.029816 150.967072,478.623413 
	C145.208694,475.796539 139.081497,473.033936 133.832031,469.100067 
	C131.778397,467.561066 130.239410,462.963074 130.967422,460.496552 
	C134.059250,450.021240 137.355682,439.479156 141.975403,429.616302 
	C146.984573,418.922028 148.341293,409.510284 140.118561,399.729950 
	C137.014542,396.037964 135.679260,390.858917 133.279388,386.111664 
z"/>
<path fill="#E9AD24" opacity="1.000000" stroke="none" 
	d="
M111.985291,143.965149 
	C121.682892,139.691574 131.369431,135.392639 141.083084,131.155853 
	C145.494141,129.231888 149.958893,127.431076 154.673309,125.373764 
	C162.805176,129.454880 170.680435,133.705093 178.515167,138.028702 
	C184.428406,141.291931 190.289825,144.649033 196.535492,148.000610 
	C195.726028,152.843765 191.198044,155.836655 185.771347,155.394043 
	C179.665161,154.895996 173.466736,154.895706 167.475159,153.782013 
	C159.573730,152.313339 154.910400,156.173264 151.024109,162.077469 
	C150.205582,163.321014 149.481445,164.626694 148.211288,165.828491 
	C143.055435,162.958145 138.384521,160.191849 133.752823,157.361343 
	C126.483078,152.918701 119.239784,148.432755 111.985291,143.965149 
z"/>
<path fill="#FAD36B" opacity="1.000000" stroke="none" 
	d="
M95.618118,118.086365 
	C96.270638,122.771935 94.693657,126.405678 90.066177,127.948204 
	C84.597908,129.770996 81.954659,133.970169 80.169823,138.997803 
	C79.391602,141.189926 78.669640,143.402634 77.954887,145.616562 
	C75.731651,152.502945 72.822868,158.396927 63.825375,157.225647 
	C62.184387,157.012024 60.360569,158.202820 58.274292,158.920227 
	C56.977444,157.927689 56.027462,156.760223 54.971909,154.860046 
	C54.759586,143.174225 58.364731,133.478027 65.630615,125.426994 
	C68.890289,121.815071 73.238235,119.185287 77.092339,116.109818 
	C83.116524,116.745323 89.140709,117.380836 95.618118,118.086365 
z"/>
<path fill="#EAAD24" opacity="1.000000" stroke="none" 
	d="
M96.940071,214.067184 
	C94.993637,208.966614 93.070694,203.824631 91.464661,198.348083 
	C101.664268,203.326233 111.533516,208.664124 121.434013,213.943436 
	C128.995682,217.975586 136.596954,221.933502 144.180603,225.924438 
	C149.419083,231.649170 146.592575,237.189850 143.455795,242.832565 
	C130.087601,235.292206 117.056557,227.657562 104.039368,219.999359 
	C102.526360,219.109222 101.090172,218.088501 99.132256,216.815186 
	C98.389885,216.333496 98.131714,216.167938 97.871635,216.005356 
	C97.871635,216.005356 97.967155,216.026505 97.924667,215.764221 
	C97.548355,214.994217 97.214531,214.486496 96.880707,213.978760 
	C96.880707,213.978760 96.963554,214.025757 96.940071,214.067184 
z"/>
<path fill="#20353E" opacity="1.000000" stroke="none" 
	d="
M76.630707,116.038101 
	C73.238235,119.185287 68.890289,121.815071 65.630615,125.426994 
	C58.364731,133.478027 54.759586,143.174225 54.803963,154.568069 
	C49.683041,147.710037 44.624500,140.411301 39.978294,132.652420 
	C45.147137,131.782013 47.989799,129.334549 49.761555,124.785606 
	C50.647415,122.511177 53.270473,120.936447 55.018841,118.966301 
	C56.089069,117.760315 56.990585,116.404602 57.967865,115.116127 
	C64.034935,115.399544 70.102005,115.682961 76.630707,116.038101 
z"/>
<path fill="#1C323D" opacity="1.000000" stroke="none" 
	d="
M469.865631,135.684662 
	C462.340942,137.589096 454.574188,139.220581 446.822144,140.918976 
	C444.715820,141.380447 442.674194,142.137939 440.567383,142.596176 
	C434.706573,143.870895 432.777191,142.649002 431.176086,136.830200 
	C430.515350,134.428986 429.828857,132.034851 429.108459,129.249969 
	C434.305725,127.332710 439.483917,125.473457 444.821411,124.425400 
	C447.158539,123.966499 450.095093,124.618561 452.283112,125.715904 
	C458.201569,128.684113 463.864716,132.161484 469.865631,135.684662 
z"/>
<path fill="#1C323D" opacity="1.000000" stroke="none" 
	d="
M244.987305,449.484100 
	C248.404404,448.082947 251.847794,446.351044 255.303864,446.325348 
	C257.463440,446.309296 260.976318,448.438232 261.585327,450.340057 
	C264.494659,459.425690 266.618591,468.762817 269.046570,478.398193 
	C263.435791,475.684143 257.616638,472.861298 252.261444,469.334015 
	C250.309540,468.048340 248.999817,465.238678 248.212357,462.855011 
	C246.818893,458.636871 246.049530,454.212616 244.987305,449.484100 
z"/>
<path fill="#28414F" opacity="1.000000" stroke="none" 
	d="
M57.548454,115.079941 
	C56.990585,116.404602 56.089069,117.760315 55.018841,118.966301 
	C53.270473,120.936447 50.647415,122.511177 49.761555,124.785606 
	C47.989799,129.334549 45.147137,131.782013 39.967461,132.294174 
	C37.823223,129.891205 35.440395,127.608475 34.510433,124.838058 
	C32.124737,117.730927 36.922489,112.590508 44.398083,113.616699 
	C48.627338,114.197266 52.884472,114.574783 57.548454,115.079941 
z"/>
<path fill="#364F66" opacity="1.000000" stroke="none" 
	d="
M445.000000,461.981659 
	C445.000000,447.734314 445.000000,433.984039 445.000000,420.233795 
	C449.072113,423.826385 448.668579,471.857788 445.000000,475.416016 
	C445.000000,470.534515 445.000000,466.506653 445.000000,461.981659 
z"/>
<path fill="#364F66" opacity="1.000000" stroke="none" 
	d="
M141.000092,43.046516 
	C141.000092,57.614918 141.000092,71.691048 141.000092,85.767181 
	C137.529175,82.951942 137.163422,36.308857 139.188522,31.751091 
	C139.658569,31.692142 140.128601,31.633194 140.598648,31.574245 
	C140.732452,35.234245 140.866272,38.894245 141.000092,43.046516 
z"/>
<path fill="#355067" opacity="1.000000" stroke="none" 
	d="
M79.773865,440.215759 
	C81.807686,443.275940 83.659782,446.789642 87.512047,445.500977 
	C90.402435,444.534027 92.746223,441.933075 95.333374,440.059631 
	C95.802078,440.437317 96.270790,440.815033 96.739502,441.192719 
	C95.288528,443.085175 94.142410,445.369873 92.320938,446.785675 
	C88.893875,449.449310 84.892159,449.819763 81.484970,446.801056 
	C79.312988,444.876770 77.447624,442.413300 76.032799,439.865082 
	C72.381729,433.289246 68.955818,432.516724 63.134293,437.370239 
	C62.078838,438.250183 61.009956,439.114075 59.555950,439.575378 
	C59.790512,435.104462 62.972069,432.945068 66.490074,432.016357 
	C68.845184,431.394653 72.157425,431.737885 74.133293,433.033813 
	C76.448105,434.552063 77.777405,437.572876 79.773865,440.215759 
z"/>
<path fill="#355067" opacity="1.000000" stroke="none" 
	d="
M355.345673,443.092834 
	C363.497620,443.975311 367.076691,448.055176 365.466187,454.027740 
	C364.224915,458.630890 361.259033,461.127350 356.539917,460.919098 
	C352.431976,460.737793 349.285797,458.566132 348.139740,454.500977 
	C346.842468,449.899597 348.787720,446.179474 353.152832,443.961792 
	C353.739807,443.663574 354.350372,443.411713 355.345673,443.092834 
M351.916534,455.340454 
	C355.839050,458.962006 358.262268,458.862427 361.262756,455.159210 
	C364.236694,451.488739 361.989471,448.898071 359.226013,447.044647 
	C358.000153,446.222534 355.486816,446.544891 353.902344,447.191650 
	C350.435272,448.606873 350.621429,451.664825 351.916534,455.340454 
z"/>
<path fill="#355067" opacity="1.000000" stroke="none" 
	d="
M451.494873,70.127220 
	C452.738007,64.227592 456.613647,60.645847 461.106262,61.041447 
	C465.311066,61.411701 469.047577,65.801918 468.994904,70.310188 
	C468.936615,75.299484 466.368042,78.444588 461.923859,78.968552 
	C456.557404,79.601242 452.976532,77.069275 451.858948,71.875534 
	C451.755066,71.392761 451.517761,70.938698 451.494873,70.127220 
M457.593170,75.187401 
	C461.413177,77.215843 464.268677,75.594772 465.655762,72.175102 
	C466.975616,68.921204 465.907898,65.556381 462.103027,64.779839 
	C460.267853,64.405289 457.465546,65.314178 456.134155,66.662193 
	C453.543579,69.285095 454.446686,72.332466 457.593170,75.187401 
z"/>
<path fill="#364F66" opacity="1.000000" stroke="none" 
	d="
M131.996506,49.541710 
	C131.998489,63.242489 131.998489,76.501266 131.998489,89.760048 
	C131.084686,89.749245 130.170883,89.738441 129.257080,89.727638 
	C128.752213,75.075638 129.009506,60.416088 129.111526,45.758076 
	C129.729034,45.672680 130.346527,45.587280 130.964020,45.501881 
	C131.307526,46.701160 131.651016,47.900436 131.996506,49.541710 
z"/>
<path fill="#395167" opacity="1.000000" stroke="none" 
	d="
M436.009125,465.981445 
	C436.009125,455.202484 436.009125,444.920593 436.009125,434.638702 
	C436.487732,434.491852 436.966339,434.345001 437.444977,434.198151 
	C437.967621,435.571686 438.930420,436.940918 438.944000,438.319458 
	C439.063354,450.451721 439.054291,462.585968 438.957520,474.718597 
	C438.946686,476.072632 438.153320,477.420410 437.722839,478.771088 
	C437.151611,478.697662 436.580353,478.624268 436.009125,478.550842 
	C436.009125,474.526733 436.009125,470.502625 436.009125,465.981445 
z"/>
<path fill="#355067" opacity="1.000000" stroke="none" 
	d="
M61.329132,262.358948 
	C62.923149,262.482849 65.038063,262.497284 65.230545,263.112854 
	C66.889099,268.417053 68.200890,273.829651 69.616119,279.209930 
	C68.789925,279.441559 67.963737,279.673187 67.137543,279.904846 
	C66.121155,276.525208 64.589409,273.200745 64.220337,269.751831 
	C63.770924,265.551971 61.601917,265.457458 58.522491,266.220337 
	C54.851715,267.129761 51.188286,268.068787 47.291664,268.233276 
	C50.736263,263.464752 56.415886,264.384674 61.329132,262.358948 
z"/>
<path fill="#364F66" opacity="1.000000" stroke="none" 
	d="
M149.999298,72.950333 
	C149.999298,76.548119 149.999298,79.656075 149.999298,82.764030 
	C149.275436,82.756012 148.551590,82.747993 147.827728,82.739975 
	C147.827728,73.949905 147.827728,65.159836 147.827728,56.087624 
	C149.999359,58.094009 149.999359,58.094009 149.999298,72.950333 
z"/>
<path fill="#364F66" opacity="1.000000" stroke="none" 
	d="
M118.998421,76.102203 
	C119.127708,73.147331 119.256989,70.674965 119.433311,67.303146 
	C122.712257,71.119980 122.812576,90.334930 118.998421,93.821030 
	C118.998421,88.075592 118.998421,82.330154 118.998421,76.102203 
z"/>
<path fill="#364F66" opacity="1.000000" stroke="none" 
	d="
M426.943237,456.502106 
	C427.858582,457.013184 428.807831,457.612915 428.814270,458.222595 
	C428.893127,465.693176 428.849457,473.165344 428.781250,480.636566 
	C428.775665,481.248718 428.359314,481.857086 428.133820,482.467194 
	C427.602234,482.228699 427.070618,481.990204 426.539032,481.751678 
	C426.539032,473.366241 426.539032,464.980804 426.943237,456.502106 
z"/>
<path fill="#364F66" opacity="1.000000" stroke="none" 
	d="
M456.000000,452.123047 
	C456.000000,458.528351 456.000000,464.454559 456.000000,470.380737 
	C455.569794,470.386230 455.139587,470.391724 454.709381,470.397217 
	C454.709381,461.814270 454.709381,453.231323 454.709381,444.648376 
	C454.993958,444.604156 455.278534,444.559906 455.563141,444.515656 
	C455.708740,446.891724 455.854370,449.267822 456.000000,452.123047 
z"/>
<path fill="#F9C53A" opacity="1.000000" stroke="none" 
	d="
M96.931564,214.302429 
	C97.214531,214.486496 97.548355,214.994217 97.912918,215.811707 
	C97.623253,215.623016 97.302834,215.124573 96.931564,214.302429 
z"/>
<path fill="#F9C53A" opacity="1.000000" stroke="none" 
	d="
M97.960533,216.258209 
	C98.131714,216.167938 98.389885,216.333496 98.805595,216.667053 
	C98.659843,216.725067 98.354637,216.618073 97.960533,216.258209 
z"/>
<path fill="#D89A1E" opacity="1.000000" stroke="none" 
	d="
M403.904114,371.615295 
	C399.205170,369.653381 394.550751,367.513489 390.097412,365.015137 
	C358.922821,347.526093 327.801331,329.942505 296.639435,312.430786 
	C276.346619,301.027130 256.014435,289.693451 235.394775,278.177246 
	C238.880249,259.833649 247.170059,243.665955 257.703705,228.191574 
	C260.053802,229.596481 261.981384,231.449677 264.227753,232.753586 
	C293.403564,249.688370 322.626587,266.541809 351.833649,283.422760 
	C373.990906,296.229065 396.140259,309.048981 418.301788,321.847870 
	C419.587769,322.590576 420.951202,323.199188 422.627930,323.927124 
	C416.665436,339.746521 410.353577,355.508972 403.904114,371.615295 
z"/>
<path opacity="1.000000" stroke="none" 
	d="
M233.015289,295.398590 
	C241.305603,299.404083 249.456802,303.647095 257.444061,308.179016 
	C267.292358,313.766846 277.004150,319.595184 286.726074,325.896423 
	C275.129181,334.966797 262.734436,341.237732 247.946869,341.227234 
	C244.626862,337.461243 240.367920,334.170624 238.172745,329.835083 
	C232.789566,319.203033 230.574158,307.752930 233.015289,295.398590 
z"/>
<path fill="#1C323D" opacity="1.000000" stroke="none" 
	d="
M340.067139,231.344772 
	C339.928436,224.338425 340.501251,217.588303 339.804688,210.971848 
	C338.740631,200.864868 334.419617,191.995300 327.083038,184.347290 
	C342.572479,185.729965 351.620361,195.519211 355.945709,210.154663 
	C358.922180,220.226135 359.647339,230.615250 357.999329,241.518433 
	C352.069672,238.526230 346.139893,235.093552 340.067139,231.344772 
z"/>
<path fill="#1C323D" opacity="1.000000" stroke="none" 
	d="
M248.042633,341.546417 
	C262.734436,341.237732 275.129181,334.966797 286.895264,326.208862 
	C292.641632,328.755707 298.170044,331.566956 303.897675,334.654358 
	C295.085022,339.112152 286.298218,343.913757 276.994446,347.291443 
	C268.617188,350.332794 259.916473,349.214508 251.908554,344.906158 
	C250.511078,344.154266 249.388123,342.892090 248.042633,341.546417 
z"/>
<path fill="#D89A1E" opacity="1.000000" stroke="none" 
	d="
M144.080658,225.592163 
	C136.596954,221.933502 128.995682,217.975586 121.434013,213.943436 
	C111.533516,208.664124 101.664268,203.326233 91.415199,197.986420 
	C90.922920,196.585342 90.299973,195.019012 90.746086,193.866470 
	C96.888733,177.996582 103.165001,162.178253 109.469841,146.371750 
	C109.806740,145.527115 110.688469,144.899780 111.650940,144.068222 
	C119.239784,148.432755 126.483078,152.918701 133.752823,157.361343 
	C138.384521,160.191849 143.055435,162.958145 147.932404,166.034119 
	C143.615967,174.388245 139.258530,182.571365 134.484894,190.504044 
	C129.637436,198.559387 128.478546,206.011719 135.555084,213.577209 
	C138.808456,217.055344 141.198929,221.340622 144.080658,225.592163 
z"/>
<path fill="#EAAD25" opacity="1.000000" stroke="none" 
	d="
M450.215485,333.940948 
	C455.204102,334.352051 456.880188,337.459839 457.136505,342.040771 
	C457.723907,352.538971 452.817719,360.245148 444.856079,366.305634 
	C441.468445,368.884338 437.583618,369.482147 433.231506,366.703613 
	C426.056396,354.136261 439.001343,334.738983 450.215485,333.940948 
z"/>
</svg>